<mxfile host="app.diagrams.net" modified="2020-07-26T11:26:56.973Z" agent="5.0 (Windows NT 6.1; WOW64) AppleWebKit/537.36 (KHTML, like Gecko) Chrome/80.0.3987.163 Safari/537.36" etag="UA-J9RWLgsik9_2slCwm" version="13.5.3" type="github">
  <diagram id="kgpKYQtTHZ0yAKxKKP6v" name="Page-1">
    <mxGraphModel dx="2272" dy="834" grid="1" gridSize="10" guides="1" tooltips="1" connect="1" arrows="1" fold="1" page="1" pageScale="1" pageWidth="850" pageHeight="1100" math="0" shadow="0">
      <root>
        <mxCell id="0" />
        <mxCell id="1" parent="0" />
        <mxCell id="3nuBFxr9cyL0pnOWT2aG-1" value="ChannelTradeServiceImpl" style="shape=umlLifeline;perimeter=lifelinePerimeter;container=1;collapsible=0;recursiveResize=0;rounded=0;shadow=0;strokeWidth=1;" parent="1" vertex="1">
          <mxGeometry x="120" y="80" width="100" height="980" as="geometry" />
        </mxCell>
        <mxCell id="3nuBFxr9cyL0pnOWT2aG-2" value="" style="points=[];perimeter=orthogonalPerimeter;rounded=0;shadow=0;strokeWidth=1;" parent="3nuBFxr9cyL0pnOWT2aG-1" vertex="1">
          <mxGeometry x="45" y="70" width="10" height="190" as="geometry" />
        </mxCell>
        <mxCell id="3nuBFxr9cyL0pnOWT2aG-3" value="下单" style="verticalAlign=bottom;startArrow=oval;endArrow=block;startSize=8;shadow=0;strokeWidth=1;" parent="3nuBFxr9cyL0pnOWT2aG-1" target="3nuBFxr9cyL0pnOWT2aG-2" edge="1">
          <mxGeometry relative="1" as="geometry">
            <mxPoint x="-15" y="70" as="sourcePoint" />
          </mxGeometry>
        </mxCell>
        <mxCell id="3nuBFxr9cyL0pnOWT2aG-4" value="" style="points=[];perimeter=orthogonalPerimeter;rounded=0;shadow=0;strokeWidth=1;" parent="3nuBFxr9cyL0pnOWT2aG-1" vertex="1">
          <mxGeometry x="50" y="120" width="10" height="120" as="geometry" />
        </mxCell>
        <mxCell id="upaiQ6j6fznPRTDWuKnX-17" value="如果isBizProcessFlag=true" style="points=[];perimeter=orthogonalPerimeter;rounded=0;shadow=0;strokeWidth=1;" vertex="1" parent="3nuBFxr9cyL0pnOWT2aG-1">
          <mxGeometry x="49" y="270" width="10" height="50" as="geometry" />
        </mxCell>
        <mxCell id="upaiQ6j6fznPRTDWuKnX-29" value="检查参数" style="points=[];perimeter=orthogonalPerimeter;rounded=0;shadow=0;strokeWidth=1;" vertex="1" parent="3nuBFxr9cyL0pnOWT2aG-1">
          <mxGeometry x="49" y="330" width="10" height="80" as="geometry" />
        </mxCell>
        <mxCell id="upaiQ6j6fznPRTDWuKnX-44" value="下单" style="points=[];perimeter=orthogonalPerimeter;rounded=0;shadow=0;strokeWidth=1;" vertex="1" parent="3nuBFxr9cyL0pnOWT2aG-1">
          <mxGeometry x="48" y="560" width="10" height="53" as="geometry" />
        </mxCell>
        <mxCell id="upaiQ6j6fznPRTDWuKnX-68" value="成功" style="points=[];perimeter=orthogonalPerimeter;rounded=0;shadow=0;strokeWidth=1;" vertex="1" parent="3nuBFxr9cyL0pnOWT2aG-1">
          <mxGeometry x="48" y="810" width="10" height="53" as="geometry" />
        </mxCell>
        <mxCell id="upaiQ6j6fznPRTDWuKnX-78" value="未成功" style="points=[];perimeter=orthogonalPerimeter;rounded=0;shadow=0;strokeWidth=1;" vertex="1" parent="3nuBFxr9cyL0pnOWT2aG-1">
          <mxGeometry x="48" y="880" width="10" height="53" as="geometry" />
        </mxCell>
        <mxCell id="3nuBFxr9cyL0pnOWT2aG-5" value="TradeServiceFactory" style="shape=umlLifeline;perimeter=lifelinePerimeter;container=1;collapsible=0;recursiveResize=0;rounded=0;shadow=0;strokeWidth=1;" parent="1" vertex="1">
          <mxGeometry x="300" y="80" width="100" height="350" as="geometry" />
        </mxCell>
        <mxCell id="3nuBFxr9cyL0pnOWT2aG-6" value="" style="points=[];perimeter=orthogonalPerimeter;rounded=0;shadow=0;strokeWidth=1;" parent="3nuBFxr9cyL0pnOWT2aG-5" vertex="1">
          <mxGeometry x="45" y="120" width="10" height="130" as="geometry" />
        </mxCell>
        <mxCell id="upaiQ6j6fznPRTDWuKnX-13" value="刷码：正则匹配支付码，指定&lt;span style=&quot;background-color: rgb(249 , 249 , 243) ; color: rgb(84 , 84 , 84) ; font-family: &amp;#34;source code pro semibold&amp;#34;&quot;&gt;&lt;font style=&quot;font-size: 12px&quot;&gt;assignChannel&lt;/font&gt;&lt;/span&gt;" style="endArrow=classic;html=1;exitX=0.53;exitY=0.497;exitDx=0;exitDy=0;exitPerimeter=0;entryX=1.1;entryY=0.645;entryDx=0;entryDy=0;entryPerimeter=0;rounded=0;" edge="1" parent="3nuBFxr9cyL0pnOWT2aG-5">
          <mxGeometry width="50" height="50" relative="1" as="geometry">
            <mxPoint x="53" y="128.0999999999999" as="sourcePoint" />
            <mxPoint x="56" y="169.95000000000005" as="targetPoint" />
            <Array as="points">
              <mxPoint x="80" y="129" />
              <mxPoint x="80" y="170" />
            </Array>
          </mxGeometry>
        </mxCell>
        <mxCell id="upaiQ6j6fznPRTDWuKnX-3" value="" style="endArrow=classic;html=1;exitX=0.9;exitY=0.15;exitDx=0;exitDy=0;exitPerimeter=0;" edge="1" parent="1">
          <mxGeometry width="50" height="50" relative="1" as="geometry">
            <mxPoint x="179" y="206" as="sourcePoint" />
            <mxPoint x="349.5" y="206" as="targetPoint" />
          </mxGeometry>
        </mxCell>
        <mxCell id="upaiQ6j6fznPRTDWuKnX-4" value="&lt;span style=&quot;color: rgba(0 , 0 , 0 , 0) ; font-family: monospace ; font-size: 0px ; background-color: rgb(248 , 249 , 250)&quot;&gt;%3CmxGraphModel%3E%3Croot%3E%3CmxCell%20id%3D%220%22%2F%3E%3CmxCell%20id%3D%221%22%20parent%3D%220%22%2F%3E%3CmxCell%20id%3D%222%22%20value%3D%22%26lt%3Bpre%20style%3D%26quot%3Bbackground-color%3A%20rgb(249%20%2C%20249%20%2C%20243)%20%3B%20color%3A%20rgb(84%20%2C%2084%20%2C%2084)%20%3B%20font-family%3A%20%26amp%3B%2334%3Bsource%20code%20pro%20semibold%26amp%3B%2334%3B%20%3B%20font-size%3A%206px%26quot%3B%26gt%3BgetTradeInnerService%26lt%3B%2Fpre%26gt%3B%22%20style%3D%22edgeLabel%3Bhtml%3D1%3Balign%3Dcenter%3BverticalAlign%3Dmiddle%3Bresizable%3D0%3Bpoints%3D%5B%5D%3B%22%20vertex%3D%221%22%20connectable%3D%220%22%20parent%3D%221%22%3E%3CmxGeometry%20x%3D%22270%22%20y%3D%22240%22%20as%3D%22geometry%22%2F%3E%3C%2FmxCell%3E%3C%2Froot%3E%3C%2FmxGraphModel%3E&lt;/span&gt;" style="edgeLabel;html=1;align=center;verticalAlign=middle;resizable=0;points=[];" vertex="1" connectable="0" parent="upaiQ6j6fznPRTDWuKnX-3">
          <mxGeometry x="-0.1906" y="3" relative="1" as="geometry">
            <mxPoint as="offset" />
          </mxGeometry>
        </mxCell>
        <mxCell id="upaiQ6j6fznPRTDWuKnX-15" value="&lt;pre style=&quot;background-color: rgb(249, 249, 243); color: rgb(84, 84, 84); font-family: &amp;quot;source code pro semibold&amp;quot;; font-size: 5px;&quot;&gt;getTradeInnerService&lt;/pre&gt;" style="edgeLabel;html=1;align=center;verticalAlign=middle;resizable=0;points=[];fontSize=5;" vertex="1" connectable="0" parent="upaiQ6j6fznPRTDWuKnX-3">
          <mxGeometry x="-0.2258" y="2" relative="1" as="geometry">
            <mxPoint x="15" y="-15" as="offset" />
          </mxGeometry>
        </mxCell>
        <mxCell id="upaiQ6j6fznPRTDWuKnX-6" style="edgeStyle=orthogonalEdgeStyle;rounded=0;orthogonalLoop=1;jettySize=auto;html=1;entryX=1.2;entryY=0.458;entryDx=0;entryDy=0;entryPerimeter=0;" edge="1" parent="1">
          <mxGeometry relative="1" as="geometry">
            <mxPoint x="343" y="310.00000000000006" as="sourcePoint" />
            <mxPoint x="180" y="310.00000000000006" as="targetPoint" />
          </mxGeometry>
        </mxCell>
        <mxCell id="upaiQ6j6fznPRTDWuKnX-7" value="返回交易处理类" style="edgeLabel;html=1;align=center;verticalAlign=middle;resizable=0;points=[];" vertex="1" connectable="0" parent="upaiQ6j6fznPRTDWuKnX-6">
          <mxGeometry x="0.1411" y="-4" relative="1" as="geometry">
            <mxPoint as="offset" />
          </mxGeometry>
        </mxCell>
        <mxCell id="upaiQ6j6fznPRTDWuKnX-16" value="&lt;div&gt;getPartner：&lt;/div&gt;未指定assignChanne，返回唯一商户&lt;br&gt;指定assignChannel，返回第一个匹配商户" style="endArrow=classic;html=1;entryX=1.1;entryY=0.645;entryDx=0;entryDy=0;entryPerimeter=0;rounded=0;align=left;" edge="1" parent="1">
          <mxGeometry x="-0.1461" y="-8" width="50" height="50" relative="1" as="geometry">
            <mxPoint x="354" y="266" as="sourcePoint" />
            <mxPoint x="354" y="306.95000000000005" as="targetPoint" />
            <Array as="points">
              <mxPoint x="378" y="266" />
              <mxPoint x="378" y="307" />
            </Array>
            <mxPoint as="offset" />
          </mxGeometry>
        </mxCell>
        <mxCell id="upaiQ6j6fznPRTDWuKnX-19" value="ChannelTradeOrderService" style="shape=umlLifeline;perimeter=lifelinePerimeter;container=1;collapsible=0;recursiveResize=0;rounded=0;shadow=0;strokeWidth=1;" vertex="1" parent="1">
          <mxGeometry x="550" y="80" width="100" height="880" as="geometry" />
        </mxCell>
        <mxCell id="upaiQ6j6fznPRTDWuKnX-23" value="" style="points=[];perimeter=orthogonalPerimeter;rounded=0;shadow=0;strokeWidth=1;" vertex="1" parent="upaiQ6j6fznPRTDWuKnX-19">
          <mxGeometry x="45" y="270" width="10" height="50" as="geometry" />
        </mxCell>
        <mxCell id="upaiQ6j6fznPRTDWuKnX-24" value="" style="endArrow=classic;html=1;exitX=1.1;exitY=0.167;exitDx=0;exitDy=0;exitPerimeter=0;" edge="1" parent="1" source="upaiQ6j6fznPRTDWuKnX-17" target="upaiQ6j6fznPRTDWuKnX-23">
          <mxGeometry width="50" height="50" relative="1" as="geometry">
            <mxPoint x="180" y="370" as="sourcePoint" />
            <mxPoint x="350.5" y="370" as="targetPoint" />
          </mxGeometry>
        </mxCell>
        <mxCell id="upaiQ6j6fznPRTDWuKnX-25" value="&lt;span style=&quot;color: rgba(0 , 0 , 0 , 0) ; font-family: monospace ; font-size: 0px ; background-color: rgb(248 , 249 , 250)&quot;&gt;%3CmxGraphModel%3E%3Croot%3E%3CmxCell%20id%3D%220%22%2F%3E%3CmxCell%20id%3D%221%22%20parent%3D%220%22%2F%3E%3CmxCell%20id%3D%222%22%20value%3D%22%26lt%3Bpre%20style%3D%26quot%3Bbackground-color%3A%20rgb(249%20%2C%20249%20%2C%20243)%20%3B%20color%3A%20rgb(84%20%2C%2084%20%2C%2084)%20%3B%20font-family%3A%20%26amp%3B%2334%3Bsource%20code%20pro%20semibold%26amp%3B%2334%3B%20%3B%20font-size%3A%206px%26quot%3B%26gt%3BgetTradeInnerService%26lt%3B%2Fpre%26gt%3B%22%20style%3D%22edgeLabel%3Bhtml%3D1%3Balign%3Dcenter%3BverticalAlign%3Dmiddle%3Bresizable%3D0%3Bpoints%3D%5B%5D%3B%22%20vertex%3D%221%22%20connectable%3D%220%22%20parent%3D%221%22%3E%3CmxGeometry%20x%3D%22270%22%20y%3D%22240%22%20as%3D%22geometry%22%2F%3E%3C%2FmxCell%3E%3C%2Froot%3E%3C%2FmxGraphModel%3E&lt;/span&gt;" style="edgeLabel;html=1;align=center;verticalAlign=middle;resizable=0;points=[];" vertex="1" connectable="0" parent="upaiQ6j6fznPRTDWuKnX-24">
          <mxGeometry x="-0.1906" y="3" relative="1" as="geometry">
            <mxPoint as="offset" />
          </mxGeometry>
        </mxCell>
        <mxCell id="upaiQ6j6fznPRTDWuKnX-26" value="&lt;pre style=&quot;background-color: rgb(249 , 249 , 243) ; color: rgb(84 , 84 , 84) ; font-family: &amp;#34;source code pro semibold&amp;#34;&quot;&gt;&lt;pre style=&quot;font-family: &amp;#34;source code pro semibold&amp;#34;&quot;&gt;&lt;font style=&quot;font-size: 12px&quot;&gt;checkNotSync：检查存在未同步订单&lt;/font&gt;&lt;/pre&gt;&lt;/pre&gt;" style="edgeLabel;html=1;align=center;verticalAlign=middle;resizable=0;points=[];fontSize=5;" vertex="1" connectable="0" parent="upaiQ6j6fznPRTDWuKnX-24">
          <mxGeometry x="-0.2258" y="2" relative="1" as="geometry">
            <mxPoint x="15" y="-15" as="offset" />
          </mxGeometry>
        </mxCell>
        <mxCell id="upaiQ6j6fznPRTDWuKnX-27" style="edgeStyle=orthogonalEdgeStyle;rounded=0;orthogonalLoop=1;jettySize=auto;html=1;entryX=1.2;entryY=0.458;entryDx=0;entryDy=0;entryPerimeter=0;exitX=0.1;exitY=0.778;exitDx=0;exitDy=0;exitPerimeter=0;" edge="1" parent="1">
          <mxGeometry relative="1" as="geometry">
            <mxPoint x="593" y="393.02" as="sourcePoint" />
            <mxPoint x="177" y="393" as="targetPoint" />
          </mxGeometry>
        </mxCell>
        <mxCell id="upaiQ6j6fznPRTDWuKnX-32" value="&lt;div&gt;&lt;/div&gt;" style="endArrow=classic;html=1;entryX=1.1;entryY=0.645;entryDx=0;entryDy=0;entryPerimeter=0;rounded=0;align=left;" edge="1" parent="1">
          <mxGeometry x="-0.1461" y="-8" width="50" height="50" relative="1" as="geometry">
            <mxPoint x="175" y="430" as="sourcePoint" />
            <mxPoint x="175" y="470.95000000000005" as="targetPoint" />
            <Array as="points">
              <mxPoint x="199" y="430" />
              <mxPoint x="199" y="471" />
            </Array>
            <mxPoint as="offset" />
          </mxGeometry>
        </mxCell>
        <mxCell id="upaiQ6j6fznPRTDWuKnX-35" value="入库交易单" style="points=[];perimeter=orthogonalPerimeter;rounded=0;shadow=0;strokeWidth=1;" vertex="1" parent="1">
          <mxGeometry x="168" y="507" width="10" height="54" as="geometry" />
        </mxCell>
        <mxCell id="upaiQ6j6fznPRTDWuKnX-36" value="" style="points=[];perimeter=orthogonalPerimeter;rounded=0;shadow=0;strokeWidth=1;" vertex="1" parent="1">
          <mxGeometry x="595" y="507" width="10" height="54" as="geometry" />
        </mxCell>
        <mxCell id="upaiQ6j6fznPRTDWuKnX-37" value="" style="endArrow=classic;html=1;exitX=1.1;exitY=0.167;exitDx=0;exitDy=0;exitPerimeter=0;" edge="1" source="upaiQ6j6fznPRTDWuKnX-35" target="upaiQ6j6fznPRTDWuKnX-36" parent="1">
          <mxGeometry width="50" height="50" relative="1" as="geometry">
            <mxPoint x="180" y="527" as="sourcePoint" />
            <mxPoint x="350.5" y="527" as="targetPoint" />
          </mxGeometry>
        </mxCell>
        <mxCell id="upaiQ6j6fznPRTDWuKnX-38" value="&lt;span style=&quot;color: rgba(0 , 0 , 0 , 0) ; font-family: monospace ; font-size: 0px ; background-color: rgb(248 , 249 , 250)&quot;&gt;%3CmxGraphModel%3E%3Croot%3E%3CmxCell%20id%3D%220%22%2F%3E%3CmxCell%20id%3D%221%22%20parent%3D%220%22%2F%3E%3CmxCell%20id%3D%222%22%20value%3D%22%26lt%3Bpre%20style%3D%26quot%3Bbackground-color%3A%20rgb(249%20%2C%20249%20%2C%20243)%20%3B%20color%3A%20rgb(84%20%2C%2084%20%2C%2084)%20%3B%20font-family%3A%20%26amp%3B%2334%3Bsource%20code%20pro%20semibold%26amp%3B%2334%3B%20%3B%20font-size%3A%206px%26quot%3B%26gt%3BgetTradeInnerService%26lt%3B%2Fpre%26gt%3B%22%20style%3D%22edgeLabel%3Bhtml%3D1%3Balign%3Dcenter%3BverticalAlign%3Dmiddle%3Bresizable%3D0%3Bpoints%3D%5B%5D%3B%22%20vertex%3D%221%22%20connectable%3D%220%22%20parent%3D%221%22%3E%3CmxGeometry%20x%3D%22270%22%20y%3D%22240%22%20as%3D%22geometry%22%2F%3E%3C%2FmxCell%3E%3C%2Froot%3E%3C%2FmxGraphModel%3E&lt;/span&gt;" style="edgeLabel;html=1;align=center;verticalAlign=middle;resizable=0;points=[];" vertex="1" connectable="0" parent="upaiQ6j6fznPRTDWuKnX-37">
          <mxGeometry x="-0.1906" y="3" relative="1" as="geometry">
            <mxPoint as="offset" />
          </mxGeometry>
        </mxCell>
        <mxCell id="upaiQ6j6fznPRTDWuKnX-39" value="&lt;pre style=&quot;background-color: rgb(249 , 249 , 243) ; color: rgb(84 , 84 , 84) ; font-family: &amp;#34;source code pro semibold&amp;#34;&quot;&gt;&lt;font style=&quot;font-size: 12px&quot;&gt;insertPayOrder&lt;/font&gt;&lt;/pre&gt;" style="edgeLabel;html=1;align=center;verticalAlign=middle;resizable=0;points=[];fontSize=5;" vertex="1" connectable="0" parent="upaiQ6j6fznPRTDWuKnX-37">
          <mxGeometry x="-0.2258" y="2" relative="1" as="geometry">
            <mxPoint x="15" y="1.6400000000000006" as="offset" />
          </mxGeometry>
        </mxCell>
        <mxCell id="upaiQ6j6fznPRTDWuKnX-40" style="edgeStyle=orthogonalEdgeStyle;rounded=0;orthogonalLoop=1;jettySize=auto;html=1;entryX=1.2;entryY=0.458;entryDx=0;entryDy=0;entryPerimeter=0;exitX=0.1;exitY=0.778;exitDx=0;exitDy=0;exitPerimeter=0;" edge="1" parent="1">
          <mxGeometry relative="1" as="geometry">
            <mxPoint x="593" y="551.02" as="sourcePoint" />
            <mxPoint x="177" y="551" as="targetPoint" />
          </mxGeometry>
        </mxCell>
        <mxCell id="upaiQ6j6fznPRTDWuKnX-41" value="ChannelTradeServiceInner" style="shape=umlLifeline;perimeter=lifelinePerimeter;container=1;collapsible=0;recursiveResize=0;rounded=0;shadow=0;strokeWidth=1;" vertex="1" parent="1">
          <mxGeometry x="267.5" y="590" width="165" height="210" as="geometry" />
        </mxCell>
        <mxCell id="upaiQ6j6fznPRTDWuKnX-42" value="" style="points=[];perimeter=orthogonalPerimeter;rounded=0;shadow=0;strokeWidth=1;" vertex="1" parent="upaiQ6j6fznPRTDWuKnX-41">
          <mxGeometry x="77.5" y="50" width="10" height="60" as="geometry" />
        </mxCell>
        <mxCell id="upaiQ6j6fznPRTDWuKnX-45" value="" style="endArrow=classic;html=1;exitX=0.9;exitY=0.15;exitDx=0;exitDy=0;exitPerimeter=0;" edge="1" parent="1">
          <mxGeometry width="50" height="50" relative="1" as="geometry">
            <mxPoint x="175" y="650" as="sourcePoint" />
            <mxPoint x="345.5" y="650" as="targetPoint" />
          </mxGeometry>
        </mxCell>
        <mxCell id="upaiQ6j6fznPRTDWuKnX-46" value="&lt;span style=&quot;color: rgba(0 , 0 , 0 , 0) ; font-family: monospace ; font-size: 0px ; background-color: rgb(248 , 249 , 250)&quot;&gt;%3CmxGraphModel%3E%3Croot%3E%3CmxCell%20id%3D%220%22%2F%3E%3CmxCell%20id%3D%221%22%20parent%3D%220%22%2F%3E%3CmxCell%20id%3D%222%22%20value%3D%22%26lt%3Bpre%20style%3D%26quot%3Bbackground-color%3A%20rgb(249%20%2C%20249%20%2C%20243)%20%3B%20color%3A%20rgb(84%20%2C%2084%20%2C%2084)%20%3B%20font-family%3A%20%26amp%3B%2334%3Bsource%20code%20pro%20semibold%26amp%3B%2334%3B%20%3B%20font-size%3A%206px%26quot%3B%26gt%3BgetTradeInnerService%26lt%3B%2Fpre%26gt%3B%22%20style%3D%22edgeLabel%3Bhtml%3D1%3Balign%3Dcenter%3BverticalAlign%3Dmiddle%3Bresizable%3D0%3Bpoints%3D%5B%5D%3B%22%20vertex%3D%221%22%20connectable%3D%220%22%20parent%3D%221%22%3E%3CmxGeometry%20x%3D%22270%22%20y%3D%22240%22%20as%3D%22geometry%22%2F%3E%3C%2FmxCell%3E%3C%2Froot%3E%3C%2FmxGraphModel%3E&lt;/span&gt;" style="edgeLabel;html=1;align=center;verticalAlign=middle;resizable=0;points=[];" vertex="1" connectable="0" parent="upaiQ6j6fznPRTDWuKnX-45">
          <mxGeometry x="-0.1906" y="3" relative="1" as="geometry">
            <mxPoint as="offset" />
          </mxGeometry>
        </mxCell>
        <mxCell id="upaiQ6j6fznPRTDWuKnX-47" value="&lt;pre style=&quot;background-color: rgb(249, 249, 243); color: rgb(84, 84, 84); font-family: &amp;quot;source code pro semibold&amp;quot;; font-size: 2px;&quot;&gt;&lt;pre style=&quot;font-family: &amp;quot;source code pro semibold&amp;quot;; font-size: 2px;&quot;&gt;unifiedOrder&lt;/pre&gt;&lt;/pre&gt;" style="edgeLabel;html=1;align=center;verticalAlign=middle;resizable=0;points=[];fontSize=2;" vertex="1" connectable="0" parent="upaiQ6j6fznPRTDWuKnX-45">
          <mxGeometry x="-0.2258" y="2" relative="1" as="geometry">
            <mxPoint x="19" y="-8" as="offset" />
          </mxGeometry>
        </mxCell>
        <mxCell id="upaiQ6j6fznPRTDWuKnX-50" value="调用dubbo交易类下单" style="endArrow=classic;html=1;exitX=0.53;exitY=0.497;exitDx=0;exitDy=0;exitPerimeter=0;entryX=1.1;entryY=0.645;entryDx=0;entryDy=0;entryPerimeter=0;rounded=0;" edge="1" parent="1">
          <mxGeometry width="50" height="50" relative="1" as="geometry">
            <mxPoint x="363" y="652.0999999999999" as="sourcePoint" />
            <mxPoint x="366" y="693.95" as="targetPoint" />
            <Array as="points">
              <mxPoint x="390" y="653" />
              <mxPoint x="390" y="694" />
            </Array>
          </mxGeometry>
        </mxCell>
        <mxCell id="upaiQ6j6fznPRTDWuKnX-51" style="edgeStyle=orthogonalEdgeStyle;rounded=0;orthogonalLoop=1;jettySize=auto;html=1;entryX=1.2;entryY=0.458;entryDx=0;entryDy=0;entryPerimeter=0;" edge="1" parent="1">
          <mxGeometry relative="1" as="geometry">
            <mxPoint x="338" y="690" as="sourcePoint" />
            <mxPoint x="175" y="690" as="targetPoint" />
          </mxGeometry>
        </mxCell>
        <mxCell id="upaiQ6j6fznPRTDWuKnX-52" value="返回下单结果" style="edgeLabel;html=1;align=center;verticalAlign=middle;resizable=0;points=[];" vertex="1" connectable="0" parent="upaiQ6j6fznPRTDWuKnX-51">
          <mxGeometry x="0.1411" y="-4" relative="1" as="geometry">
            <mxPoint as="offset" />
          </mxGeometry>
        </mxCell>
        <mxCell id="upaiQ6j6fznPRTDWuKnX-53" value="更新交易状态" style="points=[];perimeter=orthogonalPerimeter;rounded=0;shadow=0;strokeWidth=1;" vertex="1" parent="1">
          <mxGeometry x="168" y="720" width="10" height="54" as="geometry" />
        </mxCell>
        <mxCell id="upaiQ6j6fznPRTDWuKnX-54" value="" style="points=[];perimeter=orthogonalPerimeter;rounded=0;shadow=0;strokeWidth=1;" vertex="1" parent="1">
          <mxGeometry x="595" y="720" width="10" height="54" as="geometry" />
        </mxCell>
        <mxCell id="upaiQ6j6fznPRTDWuKnX-55" value="" style="endArrow=classic;html=1;exitX=1.1;exitY=0.167;exitDx=0;exitDy=0;exitPerimeter=0;" edge="1" source="upaiQ6j6fznPRTDWuKnX-53" target="upaiQ6j6fznPRTDWuKnX-54" parent="1">
          <mxGeometry width="50" height="50" relative="1" as="geometry">
            <mxPoint x="180" y="740" as="sourcePoint" />
            <mxPoint x="350.5" y="740" as="targetPoint" />
          </mxGeometry>
        </mxCell>
        <mxCell id="upaiQ6j6fznPRTDWuKnX-56" value="&lt;span style=&quot;color: rgba(0 , 0 , 0 , 0) ; font-family: monospace ; font-size: 0px ; background-color: rgb(248 , 249 , 250)&quot;&gt;%3CmxGraphModel%3E%3Croot%3E%3CmxCell%20id%3D%220%22%2F%3E%3CmxCell%20id%3D%221%22%20parent%3D%220%22%2F%3E%3CmxCell%20id%3D%222%22%20value%3D%22%26lt%3Bpre%20style%3D%26quot%3Bbackground-color%3A%20rgb(249%20%2C%20249%20%2C%20243)%20%3B%20color%3A%20rgb(84%20%2C%2084%20%2C%2084)%20%3B%20font-family%3A%20%26amp%3B%2334%3Bsource%20code%20pro%20semibold%26amp%3B%2334%3B%20%3B%20font-size%3A%206px%26quot%3B%26gt%3BgetTradeInnerService%26lt%3B%2Fpre%26gt%3B%22%20style%3D%22edgeLabel%3Bhtml%3D1%3Balign%3Dcenter%3BverticalAlign%3Dmiddle%3Bresizable%3D0%3Bpoints%3D%5B%5D%3B%22%20vertex%3D%221%22%20connectable%3D%220%22%20parent%3D%221%22%3E%3CmxGeometry%20x%3D%22270%22%20y%3D%22240%22%20as%3D%22geometry%22%2F%3E%3C%2FmxCell%3E%3C%2Froot%3E%3C%2FmxGraphModel%3E&lt;/span&gt;" style="edgeLabel;html=1;align=center;verticalAlign=middle;resizable=0;points=[];" vertex="1" connectable="0" parent="upaiQ6j6fznPRTDWuKnX-55">
          <mxGeometry x="-0.1906" y="3" relative="1" as="geometry">
            <mxPoint as="offset" />
          </mxGeometry>
        </mxCell>
        <mxCell id="upaiQ6j6fznPRTDWuKnX-57" value="&lt;pre style=&quot;background-color: rgb(249, 249, 243); color: rgb(84, 84, 84); font-family: &amp;quot;source code pro semibold&amp;quot;; font-size: 2px;&quot;&gt;&lt;pre style=&quot;font-family: &amp;quot;source code pro semibold&amp;quot;; font-size: 2px;&quot;&gt;changeClose、changePaySuccess&lt;/pre&gt;&lt;/pre&gt;" style="edgeLabel;html=1;align=center;verticalAlign=middle;resizable=0;points=[];fontSize=2;" vertex="1" connectable="0" parent="upaiQ6j6fznPRTDWuKnX-55">
          <mxGeometry x="-0.2258" y="2" relative="1" as="geometry">
            <mxPoint x="15" y="1.6400000000000006" as="offset" />
          </mxGeometry>
        </mxCell>
        <mxCell id="upaiQ6j6fznPRTDWuKnX-58" style="edgeStyle=orthogonalEdgeStyle;rounded=0;orthogonalLoop=1;jettySize=auto;html=1;entryX=1.2;entryY=0.458;entryDx=0;entryDy=0;entryPerimeter=0;exitX=0.1;exitY=0.778;exitDx=0;exitDy=0;exitPerimeter=0;" edge="1" parent="1">
          <mxGeometry relative="1" as="geometry">
            <mxPoint x="593" y="764.02" as="sourcePoint" />
            <mxPoint x="177" y="764" as="targetPoint" />
          </mxGeometry>
        </mxCell>
        <mxCell id="upaiQ6j6fznPRTDWuKnX-59" value="TradeMessageProducer" style="shape=umlLifeline;perimeter=lifelinePerimeter;container=1;collapsible=0;recursiveResize=0;rounded=0;shadow=0;strokeWidth=1;" vertex="1" parent="1">
          <mxGeometry x="267.5" y="840" width="165" height="210" as="geometry" />
        </mxCell>
        <mxCell id="upaiQ6j6fznPRTDWuKnX-60" value="" style="points=[];perimeter=orthogonalPerimeter;rounded=0;shadow=0;strokeWidth=1;" vertex="1" parent="upaiQ6j6fznPRTDWuKnX-59">
          <mxGeometry x="77.5" y="50" width="10" height="60" as="geometry" />
        </mxCell>
        <mxCell id="upaiQ6j6fznPRTDWuKnX-79" value="" style="points=[];perimeter=orthogonalPerimeter;rounded=0;shadow=0;strokeWidth=1;" vertex="1" parent="upaiQ6j6fznPRTDWuKnX-59">
          <mxGeometry x="77.5" y="120" width="10" height="60" as="geometry" />
        </mxCell>
        <mxCell id="upaiQ6j6fznPRTDWuKnX-61" value="&lt;pre style=&quot;background-color: rgb(249, 249, 243); color: rgb(84, 84, 84); font-family: &amp;quot;source code pro semibold&amp;quot;; font-size: 2px;&quot;&gt;&lt;pre style=&quot;font-family: &amp;quot;source code pro semibold&amp;quot;; font-size: 2px;&quot;&gt;unifiedOrder&lt;/pre&gt;&lt;/pre&gt;" style="edgeLabel;html=1;align=center;verticalAlign=middle;resizable=0;points=[];fontSize=2;" vertex="1" connectable="0" parent="1">
          <mxGeometry x="-0.2258" y="2" relative="1" as="geometry">
            <mxPoint x="19" y="242" as="offset" />
          </mxGeometry>
        </mxCell>
        <mxCell id="upaiQ6j6fznPRTDWuKnX-63" value="&lt;span style=&quot;color: rgba(0 , 0 , 0 , 0) ; font-family: monospace ; font-size: 0px ; background-color: rgb(248 , 249 , 250)&quot;&gt;%3CmxGraphModel%3E%3Croot%3E%3CmxCell%20id%3D%220%22%2F%3E%3CmxCell%20id%3D%221%22%20parent%3D%220%22%2F%3E%3CmxCell%20id%3D%222%22%20value%3D%22%26lt%3Bpre%20style%3D%26quot%3Bbackground-color%3A%20rgb(249%20%2C%20249%20%2C%20243)%20%3B%20color%3A%20rgb(84%20%2C%2084%20%2C%2084)%20%3B%20font-family%3A%20%26amp%3B%2334%3Bsource%20code%20pro%20semibold%26amp%3B%2334%3B%20%3B%20font-size%3A%206px%26quot%3B%26gt%3BgetTradeInnerService%26lt%3B%2Fpre%26gt%3B%22%20style%3D%22edgeLabel%3Bhtml%3D1%3Balign%3Dcenter%3BverticalAlign%3Dmiddle%3Bresizable%3D0%3Bpoints%3D%5B%5D%3B%22%20vertex%3D%221%22%20connectable%3D%220%22%20parent%3D%221%22%3E%3CmxGeometry%20x%3D%22270%22%20y%3D%22240%22%20as%3D%22geometry%22%2F%3E%3C%2FmxCell%3E%3C%2Froot%3E%3C%2FmxGraphModel%3E&lt;/span&gt;" style="edgeLabel;html=1;align=center;verticalAlign=middle;resizable=0;points=[];" vertex="1" connectable="0" parent="1">
          <mxGeometry x="-0.1906" y="3" relative="1" as="geometry">
            <mxPoint y="250" as="offset" />
          </mxGeometry>
        </mxCell>
        <mxCell id="upaiQ6j6fznPRTDWuKnX-64" value="&lt;pre style=&quot;background-color: rgb(249, 249, 243); color: rgb(84, 84, 84); font-family: &amp;quot;source code pro semibold&amp;quot;; font-size: 2px;&quot;&gt;&lt;pre style=&quot;font-family: &amp;quot;source code pro semibold&amp;quot;; font-size: 2px;&quot;&gt;changeClose、changePaySuccess&lt;/pre&gt;&lt;/pre&gt;" style="edgeLabel;html=1;align=center;verticalAlign=middle;resizable=0;points=[];fontSize=2;" vertex="1" connectable="0" parent="1">
          <mxGeometry x="-0.2258" y="2" relative="1" as="geometry">
            <mxPoint x="15" y="251.64" as="offset" />
          </mxGeometry>
        </mxCell>
        <mxCell id="upaiQ6j6fznPRTDWuKnX-65" value="" style="endArrow=classic;html=1;exitX=0.9;exitY=0.15;exitDx=0;exitDy=0;exitPerimeter=0;" edge="1" parent="1">
          <mxGeometry width="50" height="50" relative="1" as="geometry">
            <mxPoint x="175" y="910" as="sourcePoint" />
            <mxPoint x="345.5" y="910" as="targetPoint" />
          </mxGeometry>
        </mxCell>
        <mxCell id="upaiQ6j6fznPRTDWuKnX-66" value="&lt;span style=&quot;color: rgba(0 , 0 , 0 , 0) ; font-family: monospace ; font-size: 0px ; background-color: rgb(248 , 249 , 250)&quot;&gt;%3CmxGraphModel%3E%3Croot%3E%3CmxCell%20id%3D%220%22%2F%3E%3CmxCell%20id%3D%221%22%20parent%3D%220%22%2F%3E%3CmxCell%20id%3D%222%22%20value%3D%22%26lt%3Bpre%20style%3D%26quot%3Bbackground-color%3A%20rgb(249%20%2C%20249%20%2C%20243)%20%3B%20color%3A%20rgb(84%20%2C%2084%20%2C%2084)%20%3B%20font-family%3A%20%26amp%3B%2334%3Bsource%20code%20pro%20semibold%26amp%3B%2334%3B%20%3B%20font-size%3A%206px%26quot%3B%26gt%3BgetTradeInnerService%26lt%3B%2Fpre%26gt%3B%22%20style%3D%22edgeLabel%3Bhtml%3D1%3Balign%3Dcenter%3BverticalAlign%3Dmiddle%3Bresizable%3D0%3Bpoints%3D%5B%5D%3B%22%20vertex%3D%221%22%20connectable%3D%220%22%20parent%3D%221%22%3E%3CmxGeometry%20x%3D%22270%22%20y%3D%22240%22%20as%3D%22geometry%22%2F%3E%3C%2FmxCell%3E%3C%2Froot%3E%3C%2FmxGraphModel%3E&lt;/span&gt;" style="edgeLabel;html=1;align=center;verticalAlign=middle;resizable=0;points=[];" vertex="1" connectable="0" parent="upaiQ6j6fznPRTDWuKnX-65">
          <mxGeometry x="-0.1906" y="3" relative="1" as="geometry">
            <mxPoint as="offset" />
          </mxGeometry>
        </mxCell>
        <mxCell id="upaiQ6j6fznPRTDWuKnX-67" value="&lt;pre style=&quot;background-color: rgb(249 , 249 , 243) ; color: rgb(84 , 84 , 84) ; font-family: &amp;#34;source code pro semibold&amp;#34; ; font-size: 2px&quot;&gt;&lt;pre style=&quot;font-family: &amp;#34;source code pro semibold&amp;#34; ; font-size: 2px&quot;&gt;&lt;pre style=&quot;font-family: &amp;#34;source code pro semibold&amp;#34; ; font-size: 11.3pt&quot;&gt;sendPayMsg&lt;/pre&gt;&lt;/pre&gt;&lt;/pre&gt;" style="edgeLabel;html=1;align=center;verticalAlign=middle;resizable=0;points=[];fontSize=2;" vertex="1" connectable="0" parent="upaiQ6j6fznPRTDWuKnX-65">
          <mxGeometry x="-0.2258" y="2" relative="1" as="geometry">
            <mxPoint x="19" y="-8" as="offset" />
          </mxGeometry>
        </mxCell>
        <mxCell id="upaiQ6j6fznPRTDWuKnX-80" value="" style="endArrow=classic;html=1;exitX=0.9;exitY=0.15;exitDx=0;exitDy=0;exitPerimeter=0;" edge="1" parent="1">
          <mxGeometry width="50" height="50" relative="1" as="geometry">
            <mxPoint x="175" y="970" as="sourcePoint" />
            <mxPoint x="345.5" y="970" as="targetPoint" />
          </mxGeometry>
        </mxCell>
        <mxCell id="upaiQ6j6fznPRTDWuKnX-81" value="&lt;span style=&quot;color: rgba(0 , 0 , 0 , 0) ; font-family: monospace ; font-size: 0px ; background-color: rgb(248 , 249 , 250)&quot;&gt;%3CmxGraphModel%3E%3Croot%3E%3CmxCell%20id%3D%220%22%2F%3E%3CmxCell%20id%3D%221%22%20parent%3D%220%22%2F%3E%3CmxCell%20id%3D%222%22%20value%3D%22%26lt%3Bpre%20style%3D%26quot%3Bbackground-color%3A%20rgb(249%20%2C%20249%20%2C%20243)%20%3B%20color%3A%20rgb(84%20%2C%2084%20%2C%2084)%20%3B%20font-family%3A%20%26amp%3B%2334%3Bsource%20code%20pro%20semibold%26amp%3B%2334%3B%20%3B%20font-size%3A%206px%26quot%3B%26gt%3BgetTradeInnerService%26lt%3B%2Fpre%26gt%3B%22%20style%3D%22edgeLabel%3Bhtml%3D1%3Balign%3Dcenter%3BverticalAlign%3Dmiddle%3Bresizable%3D0%3Bpoints%3D%5B%5D%3B%22%20vertex%3D%221%22%20connectable%3D%220%22%20parent%3D%221%22%3E%3CmxGeometry%20x%3D%22270%22%20y%3D%22240%22%20as%3D%22geometry%22%2F%3E%3C%2FmxCell%3E%3C%2Froot%3E%3C%2FmxGraphModel%3E&lt;/span&gt;" style="edgeLabel;html=1;align=center;verticalAlign=middle;resizable=0;points=[];" vertex="1" connectable="0" parent="upaiQ6j6fznPRTDWuKnX-80">
          <mxGeometry x="-0.1906" y="3" relative="1" as="geometry">
            <mxPoint as="offset" />
          </mxGeometry>
        </mxCell>
        <mxCell id="upaiQ6j6fznPRTDWuKnX-82" value="&lt;pre style=&quot;background-color: rgb(249 , 249 , 243) ; color: rgb(84 , 84 , 84) ; font-family: &amp;#34;source code pro semibold&amp;#34; ; font-size: 2px&quot;&gt;&lt;pre style=&quot;font-family: &amp;#34;source code pro semibold&amp;#34; ; font-size: 2px&quot;&gt;&lt;pre style=&quot;font-family: &amp;#34;source code pro semibold&amp;#34; ; font-size: 11.3pt&quot;&gt;sendPayMsg 延时&lt;/pre&gt;&lt;/pre&gt;&lt;/pre&gt;" style="edgeLabel;html=1;align=center;verticalAlign=middle;resizable=0;points=[];fontSize=2;" vertex="1" connectable="0" parent="upaiQ6j6fznPRTDWuKnX-80">
          <mxGeometry x="-0.2258" y="2" relative="1" as="geometry">
            <mxPoint x="19" y="-8" as="offset" />
          </mxGeometry>
        </mxCell>
        <UserObject label="&lt;span style=&quot;font-size: 2px&quot;&gt;spring-aliyunMq.xml：对应Tag消息监听类&lt;/span&gt;" link="spring-aliyunMq.xml" id="upaiQ6j6fznPRTDWuKnX-83">
          <mxCell style="shape=note;whiteSpace=wrap;html=1;backgroundOutline=1;darkOpacity=0.05;fontSize=2;" vertex="1" parent="1">
            <mxGeometry x="385" y="910" width="220" height="100" as="geometry" />
          </mxCell>
        </UserObject>
      </root>
    </mxGraphModel>
  </diagram>
</mxfile>
